<svg width="77" height="29" viewBox="0 0 77 29" fill="none" xmlns="http://www.w3.org/2000/svg">
<path d="M10.52 2.464C9.58133 3.72267 8.728 5.10933 7.96 6.624C7.192 8.13867 6.53067 9.696 5.976 11.296C5.44267 12.8747 5.02667 14.4427 4.728 16C4.45067 17.536 4.312 18.976 4.312 20.32C4.312 21.984 4.55733 23.1893 5.048 23.936C5.53867 24.6827 6.38133 25.056 7.576 25.056C8.96267 25.056 10.1787 24.576 11.224 23.616C12.2693 22.6347 13.2507 21.2907 14.168 19.584C14.7653 18.4747 15.2773 17.2587 15.704 15.936C16.1307 14.6133 16.472 13.2587 16.728 11.872C17.0053 10.464 17.208 9.056 17.336 7.648C17.464 6.21867 17.528 4.85333 17.528 3.552C17.528 2.72 17.5173 2.112 17.496 1.728C17.4747 1.344 17.4427 1.03467 17.4 0.799999C17.464 0.799999 17.624 0.821332 17.88 0.863998C18.136 0.906666 18.424 0.959999 18.744 1.024C19.0853 1.088 19.416 1.17333 19.736 1.28C20.0773 1.38667 20.3653 1.504 20.6 1.632C20.4933 3.25333 20.2907 4.928 19.992 6.656C19.7147 8.384 19.3413 10.0907 18.872 11.776C18.4027 13.4613 17.8587 15.0827 17.24 16.64C16.6213 18.1973 15.928 19.5947 15.16 20.832C14.0293 22.6667 12.76 24.096 11.352 25.12C9.944 26.1653 8.28 26.688 6.36 26.688C4.39733 26.688 2.872 26.112 1.784 24.96C0.696 23.8293 0.152 22.1013 0.152 19.776C0.152 18.432 0.301334 16.9173 0.6 15.232C0.898667 13.5253 1.29333 11.7973 1.784 10.048C2.296 8.27733 2.88267 6.56 3.544 4.896C4.20533 3.21067 4.89867 1.70667 5.624 0.383999C5.98667 0.405332 6.41333 0.479999 6.904 0.608C7.39467 0.735999 7.87467 0.906666 8.344 1.12C8.81333 1.312 9.24 1.536 9.624 1.792C10.0293 2.02667 10.328 2.25067 10.52 2.464ZM22.4925 14.3C22.8392 14.4067 23.1658 14.6467 23.4725 15.02C23.7792 15.38 24.0058 15.78 24.1525 16.22C24.0058 16.58 23.7792 17.0133 23.4725 17.52C23.1658 18.0267 22.8592 18.5467 22.5525 19.08C22.2458 19.6 21.9658 20.1 21.7125 20.58C21.4725 21.0467 21.3325 21.4333 21.2925 21.74C21.5058 21.5133 21.7392 21.2533 21.9925 20.96C22.2592 20.6533 22.5125 20.3533 22.7525 20.06C23.0058 19.7533 23.2392 19.48 23.4525 19.24C23.6658 18.9867 23.8325 18.8 23.9525 18.68C24.2058 18.4133 24.5058 18.1067 24.8525 17.76C25.1992 17.4 25.5592 17.0667 25.9325 16.76C26.3192 16.44 26.7058 16.1733 27.0925 15.96C27.4792 15.7333 27.8325 15.62 28.1525 15.62C28.4992 15.62 28.7858 15.74 29.0125 15.98C29.2525 16.2067 29.4392 16.4467 29.5725 16.7C29.5725 16.7267 29.5192 16.7667 29.4125 16.82C29.3192 16.86 29.1792 16.9867 28.9925 17.2C28.8058 17.44 28.5925 17.7733 28.3525 18.2C28.1258 18.6133 27.8992 19.0667 27.6725 19.56C27.4592 20.04 27.2792 20.5333 27.1325 21.04C26.9858 21.5467 26.9125 22.0067 26.9125 22.42C26.9125 22.7533 26.9525 22.9667 27.0325 23.06C27.1258 23.1533 27.2525 23.2 27.4125 23.2C27.5592 23.2 27.7125 23.1667 27.8725 23.1C28.0325 23.0333 28.1592 23 28.2525 23C28.3058 23.0267 28.3458 23.0867 28.3725 23.18C28.4125 23.26 28.4325 23.3333 28.4325 23.4C28.3258 23.4933 28.1992 23.5867 28.0525 23.68C27.9058 23.7733 27.7525 23.86 27.5925 23.94C27.4325 24.02 27.2725 24.0867 27.1125 24.14C26.9658 24.1933 26.8325 24.22 26.7125 24.22C26.3258 24.22 26.0058 24.16 25.7525 24.04C25.5125 23.9333 25.3192 23.7867 25.1725 23.6C25.0392 23.4133 24.9458 23.1933 24.8925 22.94C24.8392 22.6733 24.8125 22.3933 24.8125 22.1C24.8125 21.94 24.8258 21.76 24.8525 21.56C24.8792 21.36 24.9325 21.1267 25.0125 20.86C25.0925 20.58 25.2058 20.2533 25.3525 19.88C25.4992 19.4933 25.6858 19.0333 25.9125 18.5C25.8858 18.5 25.7058 18.5933 25.3725 18.78C25.0392 18.9667 24.6792 19.2533 24.2925 19.64C23.6658 20.24 23.0992 20.8333 22.5925 21.42C22.0992 22.0067 21.5925 22.66 21.0725 23.38C20.7792 23.7933 20.5192 24.14 20.2925 24.42C20.0792 24.7133 19.8925 24.9067 19.7325 25C19.4525 24.84 19.2458 24.6133 19.1125 24.32C18.9792 24.04 18.8792 23.7467 18.8125 23.44C18.8125 23.1867 18.8458 22.8667 18.9125 22.48C18.9925 22.0933 19.0925 21.6667 19.2125 21.2C19.3458 20.72 19.5058 20.22 19.6925 19.7C19.8792 19.18 20.0858 18.66 20.3125 18.14C20.8192 16.9667 21.2792 16.0467 21.6925 15.38C22.1192 14.7133 22.3858 14.3533 22.4925 14.3ZM30.0733 22.66C30.0733 22.54 30.0799 22.3933 30.0933 22.22C30.1199 22.0333 30.1599 21.7933 30.2133 21.5C30.2666 21.1933 30.3333 20.8267 30.4133 20.4C30.5066 19.9733 30.6199 19.46 30.7533 18.86C30.7799 18.7267 30.8399 18.5133 30.9333 18.22C31.0266 17.9267 31.1466 17.62 31.2933 17.3C31.4533 16.9667 31.6399 16.6467 31.8533 16.34C32.0799 16.0333 32.3466 15.8067 32.6533 15.66C32.8799 15.7133 33.1799 15.8533 33.5533 16.08C33.9266 16.2933 34.2466 16.5933 34.5133 16.98C34.2066 17.3267 33.9466 17.6733 33.7333 18.02C33.5333 18.3667 33.3466 18.7267 33.1733 19.1C33.0133 19.4733 32.8599 19.86 32.7133 20.26C32.5799 20.66 32.4266 21.08 32.2533 21.52C32.1066 21.8933 31.9733 22.28 31.8533 22.68C31.7333 23.0667 31.6666 23.4067 31.6533 23.7C31.6533 23.94 31.6466 24.1067 31.6333 24.2C31.6333 24.3067 31.5999 24.36 31.5333 24.36C31.4799 24.36 31.3733 24.3267 31.2133 24.26C31.0533 24.1933 30.8866 24.0933 30.7133 23.96C30.5533 23.8133 30.4066 23.6333 30.2733 23.42C30.1399 23.2067 30.0733 22.9533 30.0733 22.66ZM33.8933 13.98C33.8933 13.9 33.9133 13.78 33.9533 13.62C33.8866 13.5533 33.8266 13.4533 33.7733 13.32C33.7333 13.1867 33.7133 13.0667 33.7133 12.96C33.7133 12.84 33.7266 12.68 33.7533 12.48C33.7933 12.2667 33.8399 12.04 33.8933 11.8C33.9466 11.56 34.0133 11.3133 34.0933 11.06C34.1733 10.7933 34.2533 10.5533 34.3333 10.34C34.4933 10.34 34.6866 10.3867 34.9133 10.48C35.1533 10.56 35.3933 10.6733 35.6333 10.82C35.8733 10.9533 36.0933 11.1067 36.2933 11.28C36.4933 11.44 36.6466 11.5933 36.7533 11.74C36.6066 11.8867 36.4133 12.0933 36.1733 12.36C35.9333 12.6133 35.6999 12.8867 35.4733 13.18C35.2466 13.46 35.0399 13.7267 34.8533 13.98C34.6666 14.2333 34.5466 14.4133 34.4933 14.52C34.3333 14.4933 34.1933 14.4267 34.0733 14.32C33.9533 14.2 33.8933 14.0867 33.8933 13.98ZM48.0718 0.351999C48.8825 0.351999 49.7252 0.501333 50.5998 0.799999C51.4745 1.09867 52.2425 1.48267 52.9038 1.952C52.6905 3.04 52.4878 4.02133 52.2958 4.896C52.1252 5.77067 51.9652 6.57067 51.8158 7.296C51.6665 8 51.5172 8.65067 51.3678 9.248C51.2398 9.824 51.1118 10.368 50.9838 10.88C50.4718 12.8 49.9385 14.5387 49.3838 16.096C48.8505 17.632 48.2745 19.0187 47.6558 20.256C47.0585 21.4933 46.4185 22.592 45.7358 23.552C45.0745 24.512 44.3598 25.3547 43.5918 26.08C42.8452 26.784 42.0985 27.36 41.3518 27.808C40.6052 28.256 39.9118 28.544 39.2718 28.672C38.4185 28.672 37.6292 28.576 36.9038 28.384C36.1785 28.192 35.5492 27.9253 35.0158 27.584C34.5038 27.264 34.0985 26.8693 33.7998 26.4C33.5225 25.952 33.3838 25.4507 33.3838 24.896C33.3838 24.2987 33.5332 23.552 33.8318 22.656C34.1305 21.7387 34.5892 20.6613 35.2078 19.424C35.4638 19.4453 35.7625 19.5093 36.1038 19.616C36.4452 19.7227 36.7865 19.8507 37.1278 20C37.4692 20.1493 37.7785 20.32 38.0558 20.512C38.3332 20.6827 38.5358 20.8533 38.6638 21.024C37.9812 21.728 37.4265 22.5067 36.9998 23.36C36.5732 24.192 36.3598 24.9173 36.3598 25.536C36.3598 25.8987 36.4238 26.2187 36.5518 26.496C36.7012 26.7947 36.9465 27.0613 37.2878 27.296C38.5892 26.8053 39.8585 25.888 41.0958 24.544C42.3332 23.2213 43.4318 21.568 44.3918 19.584C44.9678 18.4107 45.4905 17.0667 45.9598 15.552C46.4292 14.0373 46.8238 12.5227 47.1438 11.008C47.4852 9.472 47.7412 8.01067 47.9118 6.624C48.1038 5.216 48.1998 4.032 48.1998 3.072C48.1998 2.92267 48.1892 2.72 48.1678 2.464C48.1678 2.18667 48.1572 1.90933 48.1358 1.632C48.1358 1.33333 48.1252 1.06667 48.1038 0.831999C48.0825 0.597333 48.0718 0.437333 48.0718 0.351999ZM53.5148 24.7C52.7548 24.62 52.1482 24.2867 51.6948 23.7C51.2415 23.1133 51.0148 22.3667 51.0148 21.46C51.0148 20.9267 51.0948 20.3733 51.2548 19.8C51.4148 19.2267 51.6415 18.6733 51.9348 18.14C52.2282 17.5933 52.5748 17.08 52.9748 16.6C53.3748 16.12 53.8082 15.7067 54.2748 15.36C55.0082 14.8133 55.6948 14.54 56.3348 14.54C56.7615 14.7667 57.1815 15.24 57.5948 15.96C57.6615 15.96 57.7215 15.96 57.7748 15.96C57.8282 15.9467 57.8882 15.94 57.9548 15.94C58.6615 15.94 59.0148 16.5667 59.0148 17.82C59.0148 18.66 58.8748 19.46 58.5948 20.22C58.3282 20.9667 57.9482 21.6467 57.4548 22.26C56.9748 22.8733 56.3948 23.3933 55.7148 23.82C55.0482 24.2333 54.3148 24.5267 53.5148 24.7ZM54.5348 18.4C54.3082 18.7067 54.0948 19.04 53.8948 19.4C53.6948 19.76 53.5215 20.1267 53.3748 20.5C53.2282 20.86 53.1148 21.2133 53.0348 21.56C52.9548 21.8933 52.9148 22.1933 52.9148 22.46C52.9148 22.78 52.9682 23.0867 53.0748 23.38C53.1815 23.6733 53.3015 23.84 53.4348 23.88C54.0348 23.7467 54.5815 23.5 55.0748 23.14C55.5815 22.7667 56.0148 22.3067 56.3748 21.76C56.7482 21.2133 57.0348 20.5933 57.2348 19.9C57.4482 19.2067 57.5548 18.4667 57.5548 17.68C57.5548 17.3333 57.5348 17.06 57.4948 16.86C57.4548 16.66 57.3882 16.4867 57.2948 16.34C56.7082 16.5133 56.1815 16.7933 55.7148 17.18C55.2615 17.5667 54.8682 17.9733 54.5348 18.4ZM61.823 24.14C62.4363 23.7267 63.0363 23.2 63.623 22.56C64.2096 21.9067 64.743 21.2067 65.223 20.46C65.703 19.7 66.1096 18.9133 66.443 18.1C66.7763 17.2867 67.003 16.5067 67.123 15.76C67.123 15.6 67.0363 15.4933 66.863 15.44C66.6763 15.44 66.4163 15.6067 66.083 15.94C65.763 16.26 65.403 16.6733 65.003 17.18C64.6163 17.6867 64.2163 18.2533 63.803 18.88C63.403 19.5067 63.0363 20.1333 62.703 20.76C62.3696 21.3733 62.083 21.9533 61.843 22.5C61.6163 23.0333 61.4896 23.4667 61.463 23.8C61.3296 23.8 61.2163 23.6667 61.123 23.4C61.0963 23.3333 61.0496 23.2667 60.983 23.2C60.9163 23.12 60.8096 23.0267 60.663 22.92C60.5963 22.8667 60.5296 22.8067 60.463 22.74C60.3963 22.66 60.3496 22.5933 60.323 22.54C60.2696 22.4333 60.243 22.26 60.243 22.02C60.243 21.2333 60.343 20.3467 60.543 19.36C60.743 18.3733 61.003 17.3667 61.323 16.34C61.6563 15.3133 62.043 14.3067 62.483 13.32C62.923 12.32 63.3763 11.4067 63.843 10.58C64.323 9.75333 64.803 9.05333 65.283 8.48C65.763 7.90667 66.2163 7.52667 66.643 7.34C66.7763 7.38 66.9363 7.44667 67.123 7.54C67.3096 7.63333 67.4963 7.74 67.683 7.86C67.8696 7.98 68.043 8.1 68.203 8.22C68.3763 8.34 68.503 8.44667 68.583 8.54C67.1163 9.72667 65.843 11.2533 64.763 13.12C63.6963 14.9733 62.823 17.1667 62.143 19.7C62.5163 19.0067 62.9363 18.34 63.403 17.7C63.8696 17.0467 64.3296 16.4733 64.783 15.98C65.2496 15.4867 65.6896 15.0933 66.103 14.8C66.5296 14.5067 66.883 14.36 67.163 14.36C67.3763 14.4133 67.583 14.5067 67.783 14.64C67.983 14.7733 68.163 14.94 68.323 15.14C68.483 15.3267 68.6163 15.5333 68.723 15.76C68.8296 15.9733 68.8963 16.2 68.923 16.44C68.9096 17 68.8096 17.6 68.623 18.24C68.4496 18.8667 68.2096 19.4867 67.903 20.1C67.6096 20.7133 67.2696 21.3 66.883 21.86C66.5096 22.42 66.1096 22.9133 65.683 23.34C65.2696 23.7533 64.8496 24.0867 64.423 24.34C64.0096 24.5933 63.6163 24.72 63.243 24.72C63.083 24.72 62.9163 24.7 62.743 24.66C62.583 24.6333 62.4296 24.5867 62.283 24.52C62.1496 24.4667 62.0363 24.4067 61.943 24.34C61.863 24.2733 61.823 24.2067 61.823 24.14ZM76.2384 16.04C76.2251 16.2933 76.1784 16.56 76.0984 16.84C76.0318 17.1067 75.9451 17.3533 75.8384 17.58C75.7318 17.7933 75.6184 17.9733 75.4984 18.12C75.3784 18.2667 75.2651 18.34 75.1584 18.34C75.0118 18.3267 74.9251 18.2267 74.8984 18.04C74.8984 18 74.9118 17.94 74.9384 17.86C74.9784 17.7667 75.0184 17.6667 75.0584 17.56C75.0984 17.4533 75.1318 17.3467 75.1584 17.24C75.1984 17.1333 75.2184 17.04 75.2184 16.96C75.2184 16.7733 75.1718 16.62 75.0784 16.5C74.9984 16.3667 74.8851 16.3 74.7384 16.3C74.2051 16.3 73.7984 16.6333 73.5184 17.3C73.2384 17.9667 73.0984 18.9467 73.0984 20.24C73.0984 20.3733 73.1051 20.4533 73.1184 20.48C73.3984 20.4667 73.6451 20.46 73.8584 20.46C74.0851 20.4467 74.3051 20.44 74.5184 20.44C74.5318 20.4667 74.5384 20.52 74.5384 20.6C74.5384 20.72 74.5118 20.8067 74.4584 20.86C74.1518 20.9267 73.9051 20.9867 73.7184 21.04C73.5451 21.08 73.4118 21.12 73.3184 21.16C73.2251 21.2 73.1651 21.2467 73.1384 21.3C73.1251 21.34 73.1184 21.4 73.1184 21.48C73.1184 21.5867 73.1184 21.6933 73.1184 21.8C73.1318 21.9067 73.1384 22.04 73.1384 22.2C73.1384 23.32 72.8318 24.22 72.2184 24.9C71.6184 25.58 70.7784 25.9733 69.6984 26.08C69.5118 26.0667 69.3184 26.0133 69.1184 25.92C68.9184 25.8267 68.7251 25.7067 68.5384 25.56C68.3651 25.4133 68.2118 25.2467 68.0784 25.06C67.9451 24.8867 67.8518 24.7067 67.7984 24.52C67.7984 24.0133 67.9051 23.5333 68.1184 23.08C68.3318 22.6133 68.6184 22.2067 68.9784 21.86C69.3518 21.5 69.7851 21.2133 70.2784 21C70.7851 20.7733 71.3318 20.64 71.9184 20.6C71.9184 20.2667 71.8851 19.94 71.8184 19.62C71.7518 19.3 71.6784 18.9933 71.5984 18.7C71.5318 18.3933 71.4651 18.1 71.3984 17.82C71.3318 17.5267 71.2984 17.24 71.2984 16.96C71.2984 16.6 71.3718 16.2467 71.5184 15.9C71.6651 15.54 71.8584 15.2133 72.0984 14.92C72.3384 14.6133 72.6184 14.3533 72.9384 14.14C73.2584 13.9267 73.5918 13.78 73.9384 13.7C74.0851 13.74 74.2784 13.86 74.5184 14.06C74.7718 14.2467 75.0184 14.46 75.2584 14.7C75.4984 14.94 75.7118 15.1867 75.8984 15.44C76.0851 15.68 76.1984 15.88 76.2384 16.04ZM69.6384 25.16C69.9584 25.0267 70.2584 24.8333 70.5384 24.58C70.8318 24.3267 71.0851 24.04 71.2984 23.72C71.5118 23.4 71.6784 23.06 71.7984 22.7C71.9318 22.34 71.9984 21.9867 71.9984 21.64C71.7318 21.68 71.4384 21.8067 71.1184 22.02C70.7984 22.22 70.4984 22.4667 70.2184 22.76C69.9384 23.04 69.7051 23.3333 69.5184 23.64C69.3318 23.9467 69.2384 24.2133 69.2384 24.44C69.2384 24.7333 69.3718 24.9733 69.6384 25.16Z" fill="#FDFAF3"/>
</svg>
