<svg width="30" height="30" viewBox="0 0 30 30" fill="none" xmlns="http://www.w3.org/2000/svg">
<path id="Vector" d="M0 4.30843C0 3.34474 0.31607 2.42051 0.87868 1.73907C1.44129 1.05763 2.20435 0.674805 3 0.674805H27C27.7956 0.674805 28.5587 1.05763 29.1213 1.73907C29.6839 2.42051 30 3.34474 30 4.30843V26.1102C30 27.0739 29.6839 27.9981 29.1213 28.6796C28.5587 29.361 27.7956 29.7438 27 29.7438H3C2.20435 29.7438 1.44129 29.361 0.87868 28.6796C0.31607 27.9981 0 27.0739 0 26.1102V4.30843ZM5.2785 4.30843L15 14.6116L24.7215 4.30843H5.2785ZM27 6.72298L15.9885 18.3942C15.715 18.6845 15.3637 18.8445 15 18.8445C14.6363 18.8445 14.285 18.6845 14.0115 18.3942L3 6.72298V26.1102H27V6.72298Z" fill="#FDFAF3"/>
</svg>
