<svg width="30" height="34" viewBox="0 0 30 34" fill="none" xmlns="http://www.w3.org/2000/svg">
<path id="Vector" d="M28.8 0.438721H1.2C0.53625 0.438721 0 1.03827 0 1.78037V32.6383C0 33.3804 0.53625 33.9799 1.2 33.9799H28.8C29.4638 33.9799 30 33.3804 30 32.6383V1.78037C30 1.03827 29.4638 0.438721 28.8 0.438721ZM25.335 10.2286H22.9388C21.06 10.2286 20.6963 11.2264 20.6963 12.6938V15.9264H25.1813L24.5963 20.9869H20.6963V33.9799H16.02V20.9911H12.1088V15.9264H16.02V12.1949C16.02 7.8639 18.3863 5.50344 21.8438 5.50344C23.5013 5.50344 24.9225 5.6418 25.3388 5.70469V10.2286H25.335Z" fill="#FDFAF3"/>
</svg>
