<svg width="28" height="28" viewBox="0 0 28 28" fill="none" xmlns="http://www.w3.org/2000/svg">
<path fill-rule="evenodd" clip-rule="evenodd" d="M16.3153 2.96565C16.4168 3.16281 16.4425 3.41598 16.4927 3.92231C16.5883 4.87898 16.6362 5.35731 16.8368 5.62098C16.9618 5.78469 17.128 5.91238 17.3184 5.99107C17.5087 6.06975 17.7165 6.09664 17.9207 6.06898C18.2473 6.02581 18.6207 5.72131 19.365 5.11231C19.7582 4.78915 19.9553 4.62815 20.1665 4.56048C20.4354 4.47454 20.7264 4.48905 20.9855 4.60131C21.1897 4.68998 21.3705 4.86965 21.7287 5.22898L22.7717 6.27198C23.131 6.63131 23.3107 6.81098 23.3993 7.01515C23.5116 7.27421 23.5261 7.5652 23.4402 7.83415C23.3725 8.04531 23.2115 8.24248 22.8895 8.63565C22.2793 9.38115 21.9748 9.75331 21.9305 10.0811C21.9032 10.2852 21.9303 10.4928 22.0092 10.683C22.0881 10.8731 22.2159 11.039 22.3797 11.1638C22.6422 11.3645 23.1217 11.4123 24.0795 11.508C24.5847 11.5581 24.8378 11.5838 25.0362 11.6853C25.2863 11.815 25.4811 12.031 25.5845 12.2931C25.6673 12.4996 25.6673 12.754 25.6673 13.2626V14.7373C25.6673 15.246 25.6673 15.5003 25.5857 15.7056C25.482 15.9687 25.2863 16.1851 25.035 16.3146C24.8378 16.4161 24.5847 16.4418 24.0783 16.492C23.1217 16.5876 22.6433 16.6355 22.3797 16.8361C22.2159 16.9612 22.0883 17.1273 22.0096 17.3177C21.9309 17.508 21.904 17.7159 21.9317 17.92C21.976 18.2466 22.2805 18.62 22.8895 19.3643C23.2115 19.7575 23.3725 19.9535 23.4402 20.1658C23.5261 20.4348 23.5116 20.7257 23.3993 20.9848C23.3107 21.189 23.131 21.3686 22.7717 21.728L21.7287 22.7698C21.3693 23.1303 21.1897 23.31 20.9855 23.3975C20.7264 23.5097 20.4354 23.5243 20.1665 23.4383C19.9553 23.3706 19.7582 23.2096 19.365 22.8876C18.6195 22.2786 18.2473 21.9741 17.9207 21.931C17.7165 21.9033 17.5087 21.9302 17.3184 22.0089C17.128 22.0876 16.9618 22.2153 16.8368 22.379C16.6362 22.6415 16.5883 23.1198 16.4927 24.0776C16.4425 24.584 16.4168 24.8371 16.3153 25.0343C16.186 25.2854 15.9701 25.481 15.7075 25.585C15.501 25.6666 15.2467 25.6666 14.738 25.6666H13.2633C12.7547 25.6666 12.5003 25.6666 12.295 25.585C12.032 25.4813 11.8156 25.2856 11.686 25.0343C11.5845 24.8371 11.5588 24.584 11.5087 24.0776C11.413 23.121 11.3652 22.6426 11.1645 22.379C11.0396 22.2155 10.8736 22.0879 10.6835 22.0092C10.4933 21.9305 10.2858 21.9035 10.0818 21.931C9.75398 21.9741 9.38182 22.2786 8.63632 22.8876C8.24315 23.2108 8.04598 23.3718 7.83482 23.4395C7.56587 23.5254 7.27488 23.5109 7.01582 23.3986C6.81165 23.31 6.63082 23.1303 6.27265 22.771L5.22965 21.728C4.87032 21.3686 4.69065 21.189 4.60198 20.9848C4.48972 20.7257 4.47521 20.4348 4.56115 20.1658C4.62882 19.9546 4.78982 19.7575 5.11182 19.3643C5.72198 18.6188 6.02648 18.2466 6.06965 17.9188C6.09709 17.7149 6.0701 17.5073 5.99142 17.3172C5.91274 17.127 5.78517 16.9611 5.62165 16.8361C5.35915 16.6355 4.87965 16.5876 3.92182 16.492C3.41665 16.4418 3.16348 16.4161 2.96515 16.3146C2.71496 16.1849 2.52018 15.969 2.41682 15.7068C2.33398 15.5003 2.33398 15.246 2.33398 14.7373V13.2626C2.33398 12.754 2.33398 12.4996 2.41565 12.2943C2.51935 12.0313 2.71504 11.8149 2.96632 11.6853C3.16348 11.5838 3.41665 11.5581 3.92298 11.508C4.87965 11.4123 5.35915 11.3645 5.62165 11.1638C5.78538 11.039 5.91318 10.8731 5.99207 10.683C6.07096 10.4928 6.09813 10.2852 6.07082 10.0811C6.02648 9.75331 5.72082 9.38115 5.11182 8.63448C4.78982 8.24131 4.62882 8.04531 4.56115 7.83298C4.47521 7.56403 4.48972 7.27305 4.60198 7.01398C4.69065 6.81098 4.87032 6.63015 5.22965 6.27081L6.27265 5.22898C6.63198 4.86965 6.81165 4.68881 7.01582 4.60131C7.27488 4.48905 7.56587 4.47454 7.83482 4.56048C8.04598 4.62815 8.24315 4.78915 8.63632 5.11115C9.38182 5.72015 9.75399 6.02465 10.0807 6.06898C10.2851 6.09672 10.4932 6.06976 10.6838 5.99086C10.8744 5.91195 11.0407 5.78392 11.1657 5.61981C11.364 5.35731 11.413 4.87898 11.5087 3.92115C11.5588 3.41598 11.5845 3.16281 11.686 2.96448C11.8155 2.71385 12.0314 2.51863 12.2938 2.41498C12.5003 2.33331 12.7547 2.33331 13.2633 2.33331H14.738C15.2467 2.33331 15.501 2.33331 15.7063 2.41498C15.9693 2.51868 16.1857 2.71436 16.3153 2.96565ZM14.0007 18.6666C15.2383 18.6666 16.4253 18.175 17.3005 17.2998C18.1757 16.4246 18.6673 15.2377 18.6673 14C18.6673 12.7623 18.1757 11.5753 17.3005 10.7001C16.4253 9.82498 15.2383 9.33331 14.0007 9.33331C12.763 9.33331 11.576 9.82498 10.7008 10.7001C9.82565 11.5753 9.33398 12.7623 9.33398 14C9.33398 15.2377 9.82565 16.4246 10.7008 17.2998C11.576 18.175 12.763 18.6666 14.0007 18.6666Z" fill="#80D1D5"/>
</svg>
