<svg width="28" height="28" viewBox="0 0 28 28" fill="none" xmlns="http://www.w3.org/2000/svg">
<path d="M19.9687 16.5418C20.9329 14.9584 21.4428 13.1401 21.4427 11.2862C21.4427 5.66999 16.8983 1.12224 11.2809 1.12C5.66858 1.12168 1.11914 5.67 1.11914 11.2851C1.11914 16.8952 5.66914 21.443 11.2843 21.443C13.2107 21.443 15.0055 20.8986 16.5393 19.9685L23.4514 26.88L26.8791 23.4506L19.9687 16.5418ZM11.2831 17.5728C7.81002 17.5644 5.00218 14.7577 4.99602 11.2918C4.99839 9.62501 5.66151 8.02712 6.84002 6.84839C8.01854 5.66966 9.61632 5.00626 11.2831 5.0036C14.7546 5.01256 17.5635 7.81927 17.5708 11.2918C17.5635 14.7538 14.7535 17.5644 11.2831 17.5728Z" fill="#FDFAF3"/>
</svg>
