<svg width="30" height="34" viewBox="0 0 30 34" fill="none" xmlns="http://www.w3.org/2000/svg">
<path id="Vector" d="M8.7 0.438721H21.3C26.1 0.438721 30 4.79908 30 10.1657V24.253C30 26.8327 29.0834 29.3068 27.4518 31.131C25.8203 32.9551 23.6074 33.9799 21.3 33.9799H8.7C3.9 33.9799 0 29.6196 0 24.253V10.1657C0 7.58592 0.916605 5.11184 2.54817 3.28768C4.17974 1.46352 6.39262 0.438721 8.7 0.438721ZM8.4 3.79284C6.96783 3.79284 5.59432 4.42892 4.58162 5.56116C3.56893 6.69339 3 8.22903 3 9.83026V24.5884C3 27.9257 5.415 30.6258 8.4 30.6258H21.6C23.0322 30.6258 24.4057 29.9897 25.4184 28.8575C26.4311 27.7253 27 26.1896 27 24.5884V9.83026C27 6.49291 24.585 3.79284 21.6 3.79284H8.4ZM22.875 6.30843C23.3723 6.30843 23.8492 6.52929 24.2008 6.92243C24.5525 7.31557 24.75 7.84878 24.75 8.40476C24.75 8.96074 24.5525 9.49395 24.2008 9.88708C23.8492 10.2802 23.3723 10.5011 22.875 10.5011C22.3777 10.5011 21.9008 10.2802 21.5492 9.88708C21.1975 9.49395 21 8.96074 21 8.40476C21 7.84878 21.1975 7.31557 21.5492 6.92243C21.9008 6.52929 22.3777 6.30843 22.875 6.30843ZM15 8.82402C16.9891 8.82402 18.8968 9.70747 20.3033 11.28C21.7098 12.8526 22.5 14.9854 22.5 17.2093C22.5 19.4332 21.7098 21.5661 20.3033 23.1386C18.8968 24.7112 16.9891 25.5946 15 25.5946C13.0109 25.5946 11.1032 24.7112 9.6967 23.1386C8.29018 21.5661 7.5 19.4332 7.5 17.2093C7.5 14.9854 8.29018 12.8526 9.6967 11.28C11.1032 9.70747 13.0109 8.82402 15 8.82402ZM15 12.1781C13.8065 12.1781 12.6619 12.7082 11.818 13.6517C10.9741 14.5953 10.5 15.875 10.5 17.2093C10.5 18.5437 10.9741 19.8234 11.818 20.7669C12.6619 21.7104 13.8065 22.2405 15 22.2405C16.1935 22.2405 17.3381 21.7104 18.182 20.7669C19.0259 19.8234 19.5 18.5437 19.5 17.2093C19.5 15.875 19.0259 14.5953 18.182 13.6517C17.3381 12.7082 16.1935 12.1781 15 12.1781Z" fill="#FDFAF3"/>
</svg>
