<svg width="30" height="34" viewBox="0 0 30 34" fill="none" xmlns="http://www.w3.org/2000/svg">
<path id="Vector" d="M26.6667 0.438721C27.5507 0.438721 28.3986 0.831364 29.0237 1.53027C29.6488 2.22919 30 3.17711 30 4.16552V30.2531C30 31.2415 29.6488 32.1895 29.0237 32.8884C28.3986 33.5873 27.5507 33.9799 26.6667 33.9799H3.33333C2.44928 33.9799 1.60143 33.5873 0.976311 32.8884C0.351189 32.1895 0 31.2415 0 30.2531V4.16552C0 3.17711 0.351189 2.22919 0.976311 1.53027C1.60143 0.831364 2.44928 0.438721 3.33333 0.438721H26.6667ZM25.8333 29.3214V19.4454C25.8333 17.8343 25.2609 16.2892 24.2419 15.15C23.223 14.0107 21.841 13.3707 20.4 13.3707C18.9833 13.3707 17.3333 14.3397 16.5333 15.7931V13.7248H11.8833V29.3214H16.5333V20.1349C16.5333 18.7 17.5667 17.5261 18.85 17.5261C19.4688 17.5261 20.0623 17.801 20.4999 18.2902C20.9375 18.7794 21.1833 19.443 21.1833 20.1349V29.3214H25.8333ZM6.46667 10.7992C7.20927 10.7992 7.92146 10.4694 8.44657 9.88232C8.97167 9.29524 9.26667 8.49898 9.26667 7.66871C9.26667 5.93575 8.01667 4.51957 6.46667 4.51957C5.71964 4.51957 5.00321 4.85135 4.47498 5.44193C3.94675 6.03251 3.65 6.83351 3.65 7.66871C3.65 9.40168 4.91667 10.7992 6.46667 10.7992ZM8.78333 29.3214V13.7248H4.16667V29.3214H8.78333Z" fill="#FDFAF3"/>
</svg>
