<svg width="61" height="61" viewBox="0 0 61 61" fill="none" xmlns="http://www.w3.org/2000/svg">
<path fill-rule="evenodd" clip-rule="evenodd" d="M32.3773 18.4558L40.3797 10.4534C41.713 9.12003 42.3797 8.45337 43.2081 8.45337C44.0365 8.45337 44.7032 9.12003 46.0365 10.4534L46.0365 10.4534L50.5463 14.9632C51.8797 16.2965 52.5463 16.9632 52.5463 17.7916C52.5463 18.62 51.8797 19.2867 50.5463 20.62L42.5982 28.5681C38.3909 26.0942 34.881 22.6102 32.3773 18.4558ZM30.9231 19.91L11.0228 39.8102C10.5978 40.2353 10.3852 40.4478 10.2455 40.7089C10.1058 40.97 10.0468 41.2647 9.92892 41.8542L7.77186 52.6395C7.70534 52.9721 7.67208 53.1384 7.76668 53.233C7.86129 53.3276 8.0276 53.2944 8.36021 53.2279L19.1455 51.0708C19.735 50.9529 20.0297 50.894 20.2908 50.7542C20.5519 50.6145 20.7644 50.402 21.1895 49.9769L41.1403 30.0261C36.9837 27.4881 33.488 24.0172 30.9231 19.91Z" fill="#2D4777"/>
</svg>
