<svg width="92" height="26" viewBox="0 0 92 26" fill="none" xmlns="http://www.w3.org/2000/svg">
<path d="M33.802 16.922C34.1893 16.922 34.523 16.8777 34.803 16.789C35.083 16.7003 35.3117 16.5767 35.489 16.418C35.671 16.2547 35.804 16.0633 35.888 15.844C35.972 15.62 36.014 15.375 36.014 15.109C36.014 14.591 35.8297 14.1827 35.461 13.884C35.0923 13.5807 34.5393 13.429 33.802 13.429H31.632V16.922H33.802ZM31.632 9.04V12.463H33.424C33.8067 12.463 34.138 12.421 34.418 12.337C34.7027 12.253 34.936 12.1363 35.118 11.987C35.3047 11.8377 35.4423 11.658 35.531 11.448C35.6197 11.2333 35.664 11 35.664 10.748C35.664 10.1553 35.4867 9.72367 35.132 9.453C34.7773 9.17767 34.2267 9.04 33.48 9.04H31.632ZM33.48 7.969C34.096 7.969 34.6257 8.02967 35.069 8.151C35.517 8.27233 35.8833 8.445 36.168 8.669C36.4573 8.893 36.6697 9.16833 36.805 9.495C36.9403 9.817 37.008 10.181 37.008 10.587C37.008 10.8343 36.9683 11.0723 36.889 11.301C36.8143 11.525 36.7 11.735 36.546 11.931C36.392 12.127 36.196 12.3043 35.958 12.463C35.7247 12.617 35.4493 12.743 35.132 12.841C35.8693 12.981 36.4223 13.2447 36.791 13.632C37.1643 14.0147 37.351 14.5187 37.351 15.144C37.351 15.5687 37.2717 15.956 37.113 16.306C36.959 16.656 36.7303 16.957 36.427 17.209C36.1283 17.461 35.7597 17.657 35.321 17.797C34.8823 17.9323 34.383 18 33.823 18H30.281V7.969H33.48ZM44.5221 14.276L42.9471 10.195C42.9004 10.0737 42.8514 9.93367 42.8001 9.775C42.7487 9.61167 42.6997 9.439 42.6531 9.257C42.5551 9.635 42.4547 9.95 42.3521 10.202L40.7771 14.276H44.5221ZM47.3501 18H46.3001C46.1787 18 46.0807 17.9697 46.0061 17.909C45.9314 17.8483 45.8754 17.7713 45.8381 17.678L44.9001 15.256H40.3991L39.4611 17.678C39.4331 17.762 39.3794 17.8367 39.3001 17.902C39.2207 17.9673 39.1227 18 39.0061 18H37.9561L41.9671 7.969H43.3391L47.3501 18ZM55.4519 15.928C55.5266 15.928 55.5919 15.9583 55.6479 16.019L56.1869 16.6C55.7762 17.076 55.2769 17.447 54.6889 17.713C54.1056 17.979 53.3986 18.112 52.5679 18.112C51.8492 18.112 51.1959 17.9883 50.6079 17.741C50.0199 17.489 49.5182 17.139 49.1029 16.691C48.6876 16.2383 48.3656 15.697 48.1369 15.067C47.9082 14.437 47.7939 13.744 47.7939 12.988C47.7939 12.232 47.9129 11.539 48.1509 10.909C48.3889 10.279 48.7226 9.73767 49.1519 9.285C49.5859 8.83233 50.1039 8.48233 50.7059 8.235C51.3079 7.983 51.9729 7.857 52.7009 7.857C53.4149 7.857 54.0449 7.97133 54.5909 8.2C55.1369 8.42867 55.6176 8.739 56.0329 9.131L55.5849 9.754C55.5569 9.80067 55.5196 9.84033 55.4729 9.873C55.4309 9.901 55.3726 9.915 55.2979 9.915C55.2139 9.915 55.1112 9.87067 54.9899 9.782C54.8686 9.68867 54.7099 9.586 54.5139 9.474C54.3179 9.362 54.0729 9.26167 53.7789 9.173C53.4849 9.07967 53.1232 9.033 52.6939 9.033C52.1759 9.033 51.7022 9.124 51.2729 9.306C50.8436 9.48333 50.4726 9.74233 50.1599 10.083C49.8519 10.4237 49.6116 10.839 49.4389 11.329C49.2662 11.819 49.1799 12.372 49.1799 12.988C49.1799 13.6133 49.2686 14.171 49.4459 14.661C49.6279 15.151 49.8729 15.5663 50.1809 15.907C50.4936 16.243 50.8599 16.4997 51.2799 16.677C51.7046 16.8543 52.1619 16.943 52.6519 16.943C52.9506 16.943 53.2189 16.9267 53.4569 16.894C53.6996 16.8567 53.9212 16.8007 54.1219 16.726C54.3272 16.6513 54.5162 16.558 54.6889 16.446C54.8662 16.3293 55.0412 16.1917 55.2139 16.033C55.2932 15.963 55.3726 15.928 55.4519 15.928ZM59.1125 12.365H59.6235C59.8008 12.365 59.9431 12.344 60.0505 12.302C60.1578 12.2553 60.2558 12.1783 60.3445 12.071L63.6835 8.291C63.7768 8.16967 63.8748 8.08567 63.9775 8.039C64.0801 7.99233 64.2061 7.969 64.3555 7.969H65.5035L61.6815 12.288C61.5881 12.4 61.4971 12.4933 61.4085 12.568C61.3245 12.638 61.2335 12.6963 61.1355 12.743C61.2615 12.785 61.3758 12.848 61.4785 12.932C61.5811 13.0113 61.6815 13.1163 61.7795 13.247L65.7695 18H64.5935C64.5048 18 64.4278 17.9953 64.3625 17.986C64.3018 17.972 64.2481 17.9533 64.2015 17.93C64.1548 17.902 64.1128 17.8717 64.0755 17.839C64.0428 17.8017 64.0101 17.7597 63.9775 17.713L60.5195 13.73C60.4261 13.6133 60.3258 13.5317 60.2185 13.485C60.1111 13.4337 59.9478 13.408 59.7285 13.408H59.1125V18H57.7615V7.969H59.1125V12.365Z" fill="#2D4777"/>
<path d="M13.5533 19.3363L7.78956 13.4801C7.66315 13.3523 7.59224 13.1798 7.59224 13.0001C7.59224 12.8203 7.66315 12.6478 7.78956 12.5201L13.5521 6.66381C13.6784 6.53524 13.7492 6.36219 13.7492 6.18193C13.7492 6.00167 13.6784 5.82863 13.5521 5.70006C13.4903 5.63675 13.4166 5.58643 13.3351 5.55208C13.2536 5.51772 13.1661 5.50002 13.0777 5.50002C12.9893 5.50002 12.9017 5.51772 12.8203 5.55208C12.7388 5.58643 12.665 5.63675 12.6033 5.70006L6.84081 11.5551C6.46215 11.9407 6.25 12.4596 6.25 13.0001C6.25 13.5405 6.46215 14.0594 6.84081 14.4451L12.6033 20.3001C12.665 20.3636 12.7389 20.414 12.8205 20.4485C12.9021 20.483 12.9897 20.5007 13.0783 20.5007C13.1669 20.5007 13.2545 20.483 13.3361 20.4485C13.4177 20.414 13.4916 20.3636 13.5533 20.3001C13.6797 20.1715 13.7504 19.9984 13.7504 19.8182C13.7504 19.6379 13.6797 19.4649 13.5533 19.3363Z" fill="#2D4777"/>
</svg>
