<svg width="231" height="146" viewBox="0 0 231 146" fill="none" xmlns="http://www.w3.org/2000/svg">
<path d="M21.4545 122.114V124.614H11.2727V122.114H21.4545ZM44.9915 111.727V135H42.2642L29.5824 116.727H29.3551V135H26.5369V111.727H29.2642L41.9915 130.045H42.2188V111.727H44.9915ZM57.358 135.364C55.7822 135.364 54.3996 134.989 53.2102 134.239C52.0284 133.489 51.1042 132.439 50.4375 131.091C49.7784 129.742 49.4489 128.167 49.4489 126.364C49.4489 124.545 49.7784 122.958 50.4375 121.602C51.1042 120.246 52.0284 119.193 53.2102 118.443C54.3996 117.693 55.7822 117.318 57.358 117.318C58.9337 117.318 60.3125 117.693 61.4943 118.443C62.6837 119.193 63.608 120.246 64.267 121.602C64.9337 122.958 65.267 124.545 65.267 126.364C65.267 128.167 64.9337 129.742 64.267 131.091C63.608 132.439 62.6837 133.489 61.4943 134.239C60.3125 134.989 58.9337 135.364 57.358 135.364ZM57.358 132.955C58.5549 132.955 59.5398 132.648 60.3125 132.034C61.0852 131.42 61.6572 130.614 62.0284 129.614C62.3996 128.614 62.5852 127.53 62.5852 126.364C62.5852 125.197 62.3996 124.11 62.0284 123.102C61.6572 122.095 61.0852 121.28 60.3125 120.659C59.5398 120.038 58.5549 119.727 57.358 119.727C56.161 119.727 55.1761 120.038 54.4034 120.659C53.6307 121.28 53.0587 122.095 52.6875 123.102C52.3163 124.11 52.1307 125.197 52.1307 126.364C52.1307 127.53 52.3163 128.614 52.6875 129.614C53.0587 130.614 53.6307 131.42 54.4034 132.034C55.1761 132.648 56.161 132.955 57.358 132.955ZM87.6335 111.727H90.4517V128.364C90.4517 129.848 90.179 131.11 89.6335 132.148C89.0881 133.186 88.3191 133.973 87.3267 134.511C86.3343 135.049 85.1638 135.318 83.8153 135.318C82.5426 135.318 81.41 135.087 80.4176 134.625C79.4252 134.155 78.6449 133.489 78.0767 132.625C77.5085 131.761 77.2244 130.735 77.2244 129.545H79.9972C79.9972 130.205 80.16 130.78 80.4858 131.273C80.8191 131.758 81.2737 132.136 81.8494 132.409C82.4252 132.682 83.0805 132.818 83.8153 132.818C84.6259 132.818 85.3153 132.648 85.8835 132.307C86.4517 131.966 86.8835 131.466 87.179 130.807C87.482 130.14 87.6335 129.326 87.6335 128.364V111.727ZM102.827 135.364C101.251 135.364 99.8684 134.989 98.679 134.239C97.4972 133.489 96.5729 132.439 95.9062 131.091C95.2472 129.742 94.9176 128.167 94.9176 126.364C94.9176 124.545 95.2472 122.958 95.9062 121.602C96.5729 120.246 97.4972 119.193 98.679 118.443C99.8684 117.693 101.251 117.318 102.827 117.318C104.402 117.318 105.781 117.693 106.963 118.443C108.152 119.193 109.077 120.246 109.736 121.602C110.402 122.958 110.736 124.545 110.736 126.364C110.736 128.167 110.402 129.742 109.736 131.091C109.077 132.439 108.152 133.489 106.963 134.239C105.781 134.989 104.402 135.364 102.827 135.364ZM102.827 132.955C104.024 132.955 105.009 132.648 105.781 132.034C106.554 131.42 107.126 130.614 107.497 129.614C107.868 128.614 108.054 127.53 108.054 126.364C108.054 125.197 107.868 124.11 107.497 123.102C107.126 122.095 106.554 121.28 105.781 120.659C105.009 120.038 104.024 119.727 102.827 119.727C101.63 119.727 100.645 120.038 99.8722 120.659C99.0994 121.28 98.5275 122.095 98.1562 123.102C97.785 124.11 97.5994 125.197 97.5994 126.364C97.5994 127.53 97.785 128.614 98.1562 129.614C98.5275 130.614 99.0994 131.42 99.8722 132.034C100.645 132.648 101.63 132.955 102.827 132.955ZM115.193 135V111.727H117.875V120.318H118.102C118.299 120.015 118.572 119.629 118.92 119.159C119.277 118.682 119.784 118.258 120.443 117.886C121.11 117.508 122.011 117.318 123.148 117.318C124.617 117.318 125.913 117.686 127.034 118.42C128.155 119.155 129.03 120.197 129.659 121.545C130.288 122.894 130.602 124.485 130.602 126.318C130.602 128.167 130.288 129.769 129.659 131.125C129.03 132.473 128.159 133.519 127.045 134.261C125.932 134.996 124.648 135.364 123.193 135.364C122.072 135.364 121.174 135.178 120.5 134.807C119.826 134.428 119.307 134 118.943 133.523C118.58 133.038 118.299 132.636 118.102 132.318H117.784V135H115.193ZM117.83 126.273C117.83 127.591 118.023 128.754 118.409 129.761C118.795 130.761 119.36 131.545 120.102 132.114C120.845 132.674 121.754 132.955 122.83 132.955C123.951 132.955 124.886 132.659 125.636 132.068C126.394 131.47 126.962 130.667 127.341 129.659C127.727 128.644 127.92 127.515 127.92 126.273C127.92 125.045 127.731 123.939 127.352 122.955C126.981 121.962 126.417 121.178 125.659 120.602C124.909 120.019 123.966 119.727 122.83 119.727C121.739 119.727 120.822 120.004 120.08 120.557C119.337 121.102 118.777 121.867 118.398 122.852C118.019 123.83 117.83 124.97 117.83 126.273ZM142.068 111.727H145.295L151.75 122.591H152.023L158.477 111.727H161.705L153.295 125.409V135H150.477V125.409L142.068 111.727ZM169.835 135.364C168.153 135.364 166.703 134.992 165.483 134.25C164.271 133.5 163.335 132.455 162.676 131.114C162.025 129.765 161.699 128.197 161.699 126.409C161.699 124.621 162.025 123.045 162.676 121.682C163.335 120.311 164.252 119.242 165.426 118.477C166.608 117.705 167.987 117.318 169.562 117.318C170.472 117.318 171.369 117.47 172.256 117.773C173.142 118.076 173.949 118.568 174.676 119.25C175.403 119.924 175.983 120.818 176.415 121.932C176.847 123.045 177.062 124.417 177.062 126.045V127.182H163.608V124.864H174.335C174.335 123.879 174.138 123 173.744 122.227C173.358 121.455 172.805 120.845 172.085 120.398C171.373 119.951 170.532 119.727 169.562 119.727C168.494 119.727 167.57 119.992 166.79 120.523C166.017 121.045 165.422 121.727 165.006 122.568C164.589 123.409 164.381 124.311 164.381 125.273V126.818C164.381 128.136 164.608 129.254 165.062 130.17C165.525 131.08 166.165 131.773 166.983 132.25C167.801 132.72 168.752 132.955 169.835 132.955C170.54 132.955 171.176 132.856 171.744 132.659C172.32 132.455 172.816 132.152 173.233 131.75C173.65 131.341 173.972 130.833 174.199 130.227L176.79 130.955C176.517 131.833 176.059 132.606 175.415 133.273C174.771 133.932 173.975 134.447 173.028 134.818C172.081 135.182 171.017 135.364 169.835 135.364ZM188.733 117.545V119.818H179.688V117.545H188.733ZM182.324 113.364H185.006V130C185.006 130.758 185.116 131.326 185.335 131.705C185.563 132.076 185.85 132.326 186.199 132.455C186.555 132.576 186.93 132.636 187.324 132.636C187.619 132.636 187.862 132.621 188.051 132.591C188.241 132.553 188.392 132.523 188.506 132.5L189.051 134.909C188.869 134.977 188.616 135.045 188.29 135.114C187.964 135.189 187.551 135.227 187.051 135.227C186.294 135.227 185.551 135.064 184.824 134.739C184.104 134.413 183.506 133.917 183.028 133.25C182.559 132.583 182.324 131.742 182.324 130.727V113.364ZM202.142 123.773V126.273H191.96V123.773H202.142Z" fill="#9D9D9D"/>
<g clip-path="url(#clip0_559_552)">
<path d="M90.7503 71.5C83.2989 71.4965 76.035 69.1638 69.9749 64.8282C63.9148 60.4926 59.3616 54.3709 56.9524 47.3198C54.5433 40.2686 54.3986 32.6407 56.5388 25.5033C58.6789 18.3659 62.9968 12.0761 68.8882 7.51381C74.7796 2.95156 81.9498 0.345166 89.3957 0.0592792C96.8416 -0.226607 104.191 1.82232 110.414 5.91939C116.638 10.0165 121.426 15.9567 124.107 22.909C126.788 29.8613 127.229 37.4778 125.367 44.693C125.172 45.385 124.714 45.9732 124.091 46.3315C123.468 46.6898 122.729 46.7898 122.033 46.61C121.337 46.4302 120.738 45.985 120.367 45.3697C119.995 44.7543 119.879 44.0178 120.043 43.318C120.683 40.8464 121.005 38.3031 121 35.75C121 29.7671 119.226 23.9186 115.902 18.944C112.578 13.9694 107.854 10.0922 102.326 7.80261C96.799 5.51306 90.7167 4.91401 84.8488 6.08121C78.9809 7.24841 73.5909 10.1294 69.3603 14.36C65.1298 18.5905 62.2487 23.9806 61.0815 29.8485C59.9143 35.7164 60.5134 41.7987 62.8029 47.3261C65.0925 52.8536 68.9697 57.578 73.9443 60.9019C78.9189 64.2258 84.7674 66 90.7503 66C96.9235 66.0204 102.952 64.1288 108.007 60.5852C110.968 58.552 113.531 55.9913 115.566 53.031C115.979 52.4289 116.613 52.0153 117.331 51.8812C118.048 51.7471 118.789 51.9035 119.392 52.316C119.994 52.7284 120.407 53.3631 120.541 54.0805C120.675 54.7979 120.519 55.5391 120.107 56.1412C117.694 59.6483 114.659 62.6839 111.153 65.098C105.175 69.2859 98.0487 71.5222 90.7503 71.5Z" fill="#2D4777"/>
<path d="M134.417 87.9999C132.142 87.9938 129.961 87.0906 128.348 85.4864L107.643 64.7817C107.142 64.263 106.865 63.5684 106.871 62.8473C106.877 62.1263 107.167 61.4365 107.677 60.9267C108.186 60.4168 108.876 60.1276 109.597 60.1213C110.318 60.1151 111.013 60.3922 111.532 60.8932L132.236 81.5979C132.815 82.1763 133.599 82.5012 134.417 82.5012C135.235 82.5012 136.019 82.1763 136.598 81.5979C137.176 81.0196 137.501 80.2351 137.501 79.4172C137.501 78.5992 137.176 77.8148 136.598 77.2364L115.893 56.5317C115.392 56.013 115.115 55.3184 115.121 54.5973C115.127 53.8763 115.417 53.1865 115.927 52.6767C116.436 52.1668 117.126 51.8776 117.847 51.8713C118.568 51.8651 119.263 52.1422 119.782 52.6432L140.486 73.3479C141.687 74.5482 142.504 76.0776 142.836 77.7426C143.167 79.4076 142.997 81.1334 142.347 82.7017C141.697 84.2701 140.597 85.6106 139.186 86.5537C137.774 87.4968 136.115 88.0001 134.417 87.9999Z" fill="#2D4777"/>
<path d="M107.25 41.25H74.25C72.7913 41.25 71.3924 40.6705 70.3609 39.6391C69.3295 38.6076 68.75 37.2087 68.75 35.75V27.5C68.75 26.7707 69.0397 26.0712 69.5555 25.5555C70.0712 25.0397 70.7707 24.75 71.5 24.75H110C110.729 24.75 111.429 25.0397 111.945 25.5555C112.46 26.0712 112.75 26.7707 112.75 27.5V35.75C112.75 37.2087 112.171 38.6076 111.139 39.6391C110.108 40.6705 108.709 41.25 107.25 41.25ZM74.25 30.25V35.75H107.25V30.25H74.25Z" fill="#80D1D5"/>
<path d="M101.75 57.75H79.75C77.562 57.75 75.4635 56.8808 73.9164 55.3336C72.3692 53.7865 71.5 51.688 71.5 49.5V38.5C71.5 37.7707 71.7897 37.0712 72.3055 36.5555C72.8212 36.0397 73.5207 35.75 74.25 35.75H107.25C107.979 35.75 108.679 36.0397 109.195 36.5555C109.71 37.0712 110 37.7707 110 38.5V49.5C110 51.688 109.131 53.7865 107.584 55.3336C106.036 56.8808 103.938 57.75 101.75 57.75ZM77 41.25V49.5C77 50.2293 77.2897 50.9288 77.8055 51.4445C78.3212 51.9603 79.0207 52.25 79.75 52.25H101.75C102.479 52.25 103.179 51.9603 103.695 51.4445C104.21 50.9288 104.5 50.2293 104.5 49.5V41.25H77Z" fill="#80D1D5"/>
<path d="M101.75 30.25H79.75C79.0207 30.25 78.3212 29.9603 77.8055 29.4445C77.2897 28.9288 77 28.2293 77 27.5V22C77 19.812 77.8692 17.7135 79.4164 16.1664C80.9635 14.6192 83.062 13.75 85.25 13.75H96.25C98.438 13.75 100.536 14.6192 102.084 16.1664C103.631 17.7135 104.5 19.812 104.5 22V27.5C104.5 28.2293 104.21 28.9288 103.695 29.4445C103.179 29.9603 102.479 30.25 101.75 30.25ZM82.5 24.75H99V22C99 21.2707 98.7103 20.5712 98.1945 20.0555C97.6788 19.5397 96.9793 19.25 96.25 19.25H85.25C84.5207 19.25 83.8212 19.5397 83.3055 20.0555C82.7897 20.5712 82.5 21.2707 82.5 22V24.75Z" fill="#80D1D5"/>
</g>
<defs>
<clipPath id="clip0_559_552">
<rect width="88" height="88" fill="white" transform="translate(55)"/>
</clipPath>
</defs>
</svg>
