<svg width="37" height="35" viewBox="0 0 37 35" fill="none" xmlns="http://www.w3.org/2000/svg">
<path fill-rule="evenodd" clip-rule="evenodd" d="M7.0789 11.6666C5.58558 11.6666 4.375 12.8772 4.375 14.3705V23.1666C4.375 25.9951 4.375 27.4093 5.25368 28.288C6.13236 29.1666 7.54657 29.1666 10.375 29.1666H24.625C27.4534 29.1666 28.8676 29.1666 29.7463 28.288C30.625 27.4093 30.625 25.9951 30.625 23.1666V14.3705C30.625 12.8772 29.4144 11.6666 27.9211 11.6666C26.8969 11.6666 25.9607 11.088 25.5027 10.172L24.3056 7.77776C23.8988 6.9643 23.6955 6.55757 23.3659 6.28715C23.228 6.17404 23.0757 6.07988 22.9128 6.00716C22.5236 5.83331 22.0688 5.83331 21.1594 5.83331H13.8406C12.9312 5.83331 12.4764 5.83331 12.0872 6.00716C11.9243 6.07988 11.772 6.17404 11.6341 6.28715C11.3045 6.55757 11.1012 6.9643 10.6944 7.77776L9.49734 10.172C9.03932 11.088 8.10306 11.6666 7.0789 11.6666ZM17.5 24.7916C20.7217 24.7916 23.3333 22.18 23.3333 18.9583C23.3333 15.7367 20.7217 13.125 17.5 13.125C14.2783 13.125 11.6667 15.7367 11.6667 18.9583C11.6667 22.18 14.2783 24.7916 17.5 24.7916Z" fill="#7E869E" fill-opacity="0.25"/>
<path d="M4.375 14.3705C4.375 12.8772 5.58558 11.6666 7.0789 11.6666V11.6666C8.10306 11.6666 9.03932 11.088 9.49734 10.172L10.6944 7.77776C11.1012 6.9643 11.3045 6.55757 11.6341 6.28715C11.772 6.17404 11.9243 6.07988 12.0872 6.00716C12.4764 5.83331 12.9312 5.83331 13.8406 5.83331H21.1594C22.0688 5.83331 22.5236 5.83331 22.9128 6.00716C23.0757 6.07988 23.228 6.17404 23.3659 6.28715C23.6955 6.55757 23.8988 6.9643 24.3056 7.77776L25.5027 10.172C25.9607 11.088 26.8969 11.6666 27.9211 11.6666V11.6666C29.4144 11.6666 30.625 12.8772 30.625 14.3705V23.1666C30.625 25.9951 30.625 27.4093 29.7463 28.288C28.8676 29.1666 27.4534 29.1666 24.625 29.1666H10.375C7.54657 29.1666 6.13236 29.1666 5.25368 28.288C4.375 27.4093 4.375 25.9951 4.375 23.1666V14.3705Z" stroke="#222222" stroke-width="1.2"/>
<circle cx="17.5003" cy="18.9583" r="5.23333" stroke="#222222" stroke-width="1.2"/>
<path d="M31 3L31 9" stroke="#33363F" stroke-width="2" stroke-linecap="round"/>
<path d="M34 6L28 6" stroke="#33363F" stroke-width="2" stroke-linecap="round"/>
</svg>
