<svg width="39" height="36" viewBox="0 0 39 36" fill="none" xmlns="http://www.w3.org/2000/svg">
<path fill-rule="evenodd" clip-rule="evenodd" d="M24.375 4.5L26 6L25.9999 9H35.75V30H3.25V9H13V6L14.625 4.5H24.375ZM6.49999 20.0345L6.5 27H32.5L32.5 20.0345C29.2532 20.892 26.0027 21.4284 22.75 21.6429L22.75 24H16.25L16.25 21.6429C12.9973 21.4284 9.74682 20.892 6.49999 20.0345ZM32.5 12H6.5L6.50002 16.9055C10.8397 18.1359 15.1714 18.75 19.5 18.75C23.8286 18.75 28.1604 18.1359 32.5 16.9054L32.5 12ZM22.75 7.5H16.25V9H22.75V7.5Z" fill="black"/>
</svg>
